<svg data-v-fde0c5aa="" xmlns="http://www.w3.org/2000/svg" viewBox="0 0 300 300" class="iconLeft"><!----><defs data-v-fde0c5aa=""><!----></defs><rect data-v-fde0c5aa="" fill="transparent" x="0" y="0" width="300px" height="300px" class="logo-background-square"></rect><defs data-v-fde0c5aa=""><!----></defs><g data-v-fde0c5aa="" id="11fbaece-e15f-459c-8ff0-74007e39dacb" fill="#000000" transform="matrix(3.882810651882016,0,0,3.882810651882016,99.13515408617218,114.06458604674532)"><path d="M5.25 6.30L8.06 6.30L8.06 4.58L0.34 4.58L0.34 6.30L3.15 6.30L3.15 14.35L5.25 14.35ZM12.80 14.52C14.35 14.52 15.33 13.93 15.89 13.24L14.77 12.03C14.32 12.56 13.72 12.92 12.87 12.92C11.76 12.92 11.16 12.29 11.16 11.37L11.16 11.24L16.10 11.24L16.10 10.63C16.10 8.37 14.77 6.96 12.61 6.96C10.44 6.96 9.10 8.40 9.10 10.77C9.10 13.08 10.37 14.52 12.80 14.52ZM12.63 8.44C13.52 8.44 14.07 9.03 14.07 9.97L14.07 10.08L11.16 10.08L11.16 9.97C11.16 9.04 11.73 8.44 12.63 8.44ZM17.71 3.99L17.71 14.35L19.78 14.35L19.78 11.84L20.47 11.16L22.57 14.35L25.03 14.35L21.94 9.98L24.74 7.13L22.36 7.13L20.85 8.74L19.88 9.87L19.78 9.87L19.78 3.99ZM26.11 3.99L26.11 14.35L28.18 14.35L28.18 11.84L28.87 11.16L30.97 14.35L33.43 14.35L30.34 9.98L33.14 7.13L30.76 7.13L29.25 8.74L28.28 9.87L28.18 9.87L28.18 3.99ZM37.80 14.52C40.05 14.52 41.43 13.08 41.43 10.74C41.43 8.40 40.05 6.96 37.80 6.96C35.55 6.96 34.17 8.40 34.17 10.74C34.17 13.08 35.55 14.52 37.80 14.52ZM37.80 12.98C36.88 12.98 36.32 12.38 36.32 11.31L36.32 10.16C36.32 9.10 36.88 8.50 37.80 8.50C38.72 8.50 39.28 9.10 39.28 10.16L39.28 11.31C39.28 12.38 38.72 12.98 37.80 12.98Z"></path></g><defs data-v-fde0c5aa=""><linearGradient data-v-fde0c5aa="" gradientTransform="rotate(25)" id="b89c2bc2-4a2d-4a0d-b885-2a5cc2b76781" x1="0%" y1="0%" x2="100%" y2="0%"><stop data-v-fde0c5aa="" offset="0%" stop-color="#87544E" stop-opacity="1"></stop><stop data-v-fde0c5aa="" offset="100%" stop-color="#87544E" stop-opacity="1"></stop></linearGradient></defs><g data-v-fde0c5aa="" id="33f99911-076e-4a31-ae7d-c5cd362beb46" stroke="none" fill="url(#b89c2bc2-4a2d-4a0d-b885-2a5cc2b76781)" transform="matrix(0.6270025050456977,0,0,0.6270025050456977,31.859626601366593,118.70849837213022)"><g clip-rule="evenodd"><path d="M12.983 10.59l17.018 88.223-5.872-59.049 29.021-1.892-.054-9.883L64.549 1 53.622 18.977z"></path><path d="M59.389 54.548l5.16-53.541-8.74 39.716-19.612 1.045 1.57 20.462-7.766 36.583 12.057-39.899z"></path><path d="M62.8 67.182l.549-10.453-15.979 3.755-.032 11.797-17.337 26.532 21.68-27.616zM65.711 62.394l14.841-4.731 1.509-12.532-15.899 2.095zM72.07 44.502l10.988-1.417 1.581-10.278-8.079-.373L64.549 1l8.43 30.967z"></path><path d="M87.413 31.294l1.256-9.506-9.544-2.694L64.549 1l14.483 22.437-.422 7z"></path></g></g><!----></svg>